<svg width="37" height="29" viewBox="0 0 37 29" fill="none" xmlns="http://www.w3.org/2000/svg">
<path d="M1.26879 13.5615L14.3584 23.3479C15.3885 24.1133 16.8457 23.3856 16.8457 22.1058V18.7057C21.2675 18.392 24.923 19.6592 28.2394 21.8423C31.3171 23.8623 33.5154 26.5598 34.5078 27.9149C34.7842 28.2913 35.362 28.1909 35.5128 27.7518C35.9776 26.3466 36.2414 24.4771 36.2414 23.1221C36.2414 16.1211 33.0129 11.8427 27.8751 8.75619C24.9858 7.02475 21.6946 5.87046 16.8582 5.60699V2.53306C16.8582 1.25331 15.401 0.525602 14.3709 1.29095L1.26879 11.0773C0.4397 11.7046 0.4397 12.9468 1.26879 13.5615Z" fill="#FFDE17"/>
</svg>
