<svg width="56" height="53" viewBox="0 0 56 53" fill="none" xmlns="http://www.w3.org/2000/svg">
<path d="M28.0001 31.12C12.5765 31.12 0.0756836 38.19 0.0756836 46.8991C0.0756836 47.9063 0.253421 48.8937 0.569397 49.8416C8.94278 51.3228 18.2246 52.172 28.0001 52.172C37.7757 52.172 47.0575 51.3425 55.4309 49.8416C55.7469 48.8937 55.9246 47.9063 55.9246 46.8991C55.9246 38.19 43.4238 31.12 28.0001 31.12Z" fill="#252525"/>
<path d="M28.0004 29.1452C35.9842 29.1452 42.4563 22.673 42.4563 14.6892C42.4563 6.70542 35.9842 0.233276 28.0004 0.233276C20.0166 0.233276 13.5444 6.70542 13.5444 14.6892C13.5444 22.673 20.0166 29.1452 28.0004 29.1452Z" fill="#252525"/>
</svg>
