<svg width="206" height="81" viewBox="0 0 206 81" fill="none" xmlns="http://www.w3.org/2000/svg">
<path d="M32.9142 34.288C28.2102 34.288 24.6422 33.04 22.2102 30.544C19.8102 28.016 18.6102 24.32 18.6102 19.456V1.072L15.8262 0.495999V0.0159998H28.7382V0.495999L25.6662 1.072V18.64C25.6662 22.96 26.4822 26.24 28.1142 28.48C29.7782 30.688 32.2102 31.792 35.4102 31.792C38.3542 31.792 40.5782 30.816 42.0822 28.864C43.5862 26.912 44.3382 24.064 44.3382 20.32V14.56C44.3382 13.088 44.1462 11.648 43.7622 10.24C43.3782 8.832 42.8342 7.52 42.1302 6.304C41.4262 5.056 40.5782 3.936 39.5862 2.944C38.5942 1.952 37.4742 1.136 36.2262 0.495999V0.0159998H48.5622V0.495999L45.2022 1.072V19.12C45.2022 24.08 44.1782 27.856 42.1302 30.448C40.1142 33.008 37.0422 34.288 32.9142 34.288ZM79.6819 34.72C78.6579 34.72 77.6819 34.464 76.7539 33.952C75.8579 33.44 74.9939 32.672 74.1619 31.648C73.3619 30.624 72.5779 29.344 71.8099 27.808C70.9139 25.92 69.9539 24.096 68.9299 22.336C67.9059 20.544 66.7859 18.848 65.5699 17.248H61.6339V32.944L64.4179 33.52V34H51.7939V33.52L54.5779 32.944V1.072L51.7939 0.495999V0.0159998H69.6499C72.1779 0.0159998 74.3059 0.32 76.0339 0.927999C77.7939 1.504 79.1059 2.384 79.9699 3.568C80.8339 4.752 81.2659 6.24 81.2659 8.032C81.2659 9.728 80.7219 11.216 79.6339 12.496C78.5779 13.776 77.0099 14.784 74.9299 15.52C72.8499 16.256 70.3059 16.688 67.2979 16.816V17.2C68.5779 17.264 69.7299 17.456 70.7539 17.776C71.7779 18.064 72.7059 18.48 73.5379 19.024C74.3699 19.568 75.0899 20.256 75.6979 21.088C76.3379 21.888 76.8979 22.832 77.3779 23.92C78.2099 25.84 78.9459 27.44 79.5859 28.72C80.2259 30 80.7859 30.992 81.2659 31.696C81.7779 32.368 82.2099 32.768 82.5619 32.896C82.9139 33.056 83.2499 33.088 83.5699 32.992V33.472C83.1859 33.792 82.7539 34.032 82.2739 34.192C81.8259 34.384 81.3619 34.512 80.8819 34.576C80.4339 34.672 80.0339 34.72 79.6819 34.72ZM65.1859 16.24C66.6579 16.24 67.9699 16.064 69.1219 15.712C70.2739 15.328 71.2499 14.8 72.0499 14.128C72.8499 13.424 73.4579 12.576 73.8739 11.584C74.2899 10.592 74.4979 9.456 74.4979 8.176C74.4979 6.576 74.2099 5.232 73.6339 4.144C73.0579 3.056 72.2099 2.224 71.0899 1.648C70.0019 1.072 68.6579 0.783998 67.0579 0.783998C65.9059 0.783998 64.8819 0.799998 63.9859 0.831998C63.1219 0.863997 62.3379 0.943997 61.6339 1.072V16C62.0179 16.096 62.4659 16.16 62.9779 16.192C63.5219 16.224 64.2579 16.24 65.1859 16.24ZM103.581 0.0159998C106.109 0.0159998 108.221 0.303999 109.917 0.879997C111.645 1.456 112.941 2.32 113.805 3.472C114.701 4.592 115.149 6.016 115.149 7.744C115.149 9.152 114.813 10.368 114.141 11.392C113.501 12.384 112.653 13.2 111.597 13.84C110.573 14.48 109.437 14.976 108.189 15.328C106.941 15.648 105.725 15.84 104.541 15.904V16.24C106.077 16.304 107.565 16.496 109.005 16.816C110.477 17.104 111.789 17.584 112.941 18.256C114.125 18.928 115.053 19.808 115.725 20.896C116.429 21.984 116.781 23.312 116.781 24.88C116.781 26.416 116.493 27.776 115.917 28.96C115.341 30.112 114.493 31.056 113.373 31.792C112.253 32.528 110.845 33.088 109.149 33.472C107.485 33.824 105.549 34 103.341 34H86.0127V33.52L88.7967 32.8V1.216L86.0127 0.495999V0.0159998H103.581ZM101.997 0.783998C100.557 0.783998 99.3247 0.815998 98.3007 0.879997C97.2767 0.911999 96.4607 0.975999 95.8527 1.072V32.944C96.8767 33.2 98.9407 33.328 102.045 33.328C103.645 33.328 105.053 33.04 106.269 32.464C107.517 31.856 108.477 30.912 109.149 29.632C109.821 28.32 110.157 26.592 110.157 24.448C110.157 21.728 109.469 19.728 108.093 18.448C106.717 17.168 104.557 16.528 101.613 16.528L95.5167 16.384V15.904L101.613 15.76C103.245 15.728 104.589 15.408 105.645 14.8C106.733 14.16 107.549 13.248 108.093 12.064C108.669 10.88 108.957 9.44 108.957 7.744C108.957 5.536 108.365 3.824 107.181 2.608C105.997 1.392 104.269 0.783998 101.997 0.783998ZM117.755 34V33.52L120.635 32.944L133.691 0.0159998H138.203L150.971 32.944L153.755 33.52V34H140.027V33.664L143.435 32.992L132.779 5.44H132.251L127.691 17.632C126.987 19.36 126.443 21.024 126.059 22.624C125.707 24.224 125.531 25.616 125.531 26.8C125.531 28.08 125.755 29.232 126.203 30.256C126.651 31.28 127.355 32.08 128.315 32.656C129.275 33.232 130.523 33.52 132.059 33.52V34H117.755ZM125.963 20.224V19.744L138.779 19.072V20.224H125.963ZM156.081 34V33.52L159.441 32.944V4.528C159.441 3.76 159.137 3.024 158.529 2.32C157.921 1.584 157.105 0.975999 156.081 0.495999V0.0159998H165.249L185.409 25.984H186.129V14.32C186.129 13.072 186.017 11.872 185.793 10.72C185.569 9.536 185.217 8.416 184.737 7.36C184.289 6.304 183.713 5.344 183.009 4.48C182.337 3.584 181.521 2.8 180.561 2.128C179.633 1.456 178.577 0.911998 177.393 0.495999V0.0159998H190.593V0.495999L186.849 1.072V34H183.057L160.785 5.488H160.161V16.576C160.161 18.144 160.273 19.632 160.497 21.04C160.721 22.448 161.073 23.776 161.553 25.024C162.065 26.24 162.705 27.376 163.473 28.432C164.241 29.488 165.169 30.448 166.257 31.312C167.377 32.144 168.657 32.88 170.097 33.52V34H156.081ZM30.775 73.712C29.719 75.344 28.471 76.672 27.031 77.696C25.591 78.72 24.039 79.488 22.375 80C20.711 80.48 18.999 80.72 17.239 80.72C14.871 80.72 12.679 80.336 10.663 79.568C8.679 78.768 6.951 77.616 5.479 76.112C4.007 74.576 2.855 72.72 2.023 70.544C1.223 68.368 0.823 65.904 0.823 63.152C0.823 60.432 1.223 57.984 2.023 55.808C2.855 53.6 4.007 51.712 5.479 50.144C6.983 48.576 8.791 47.376 10.903 46.544C13.015 45.712 15.383 45.296 18.007 45.296C19.799 45.296 21.511 45.472 23.143 45.824C24.775 46.176 26.247 46.656 27.559 47.264C28.871 47.84 29.975 48.496 30.871 49.232L28.279 62.096H27.367L26.119 55.136C25.735 53.056 25.143 51.344 24.343 50C23.543 48.624 22.503 47.6 21.223 46.928C19.943 46.256 18.407 45.92 16.615 45.92C15.271 45.92 14.055 46.32 12.967 47.12C11.879 47.888 10.951 48.976 10.183 50.384C9.415 51.76 8.823 53.36 8.407 55.184C7.991 57.008 7.783 58.976 7.783 61.088C7.783 63.328 8.055 65.44 8.599 67.424C9.143 69.408 9.959 71.152 11.047 72.656C12.167 74.16 13.575 75.344 15.271 76.208C16.967 77.04 18.983 77.456 21.319 77.456C23.079 77.456 24.727 77.104 26.263 76.4C27.831 75.696 29.175 74.688 30.295 73.376L30.775 73.712ZM33.8249 80V79.52L36.7049 78.944L49.7609 46.016H54.2729L67.0409 78.944L69.8249 79.52V80H56.0969V79.664L59.5049 78.992L48.8489 51.44H48.3209L43.7609 63.632C43.0569 65.36 42.5129 67.024 42.1289 68.624C41.7769 70.224 41.6009 71.616 41.6009 72.8C41.6009 74.08 41.8249 75.232 42.2729 76.256C42.7209 77.28 43.4249 78.08 44.3849 78.656C45.3449 79.232 46.5929 79.52 48.1289 79.52V80H33.8249ZM42.0329 66.224V65.744L54.8489 65.072V66.224H42.0329ZM72.151 80V79.52L75.799 78.944V47.12L72.391 46.496V46.016H82.615L95.143 73.856L94.471 73.04H95.959L95.431 73.856L104.695 46.016H114.775V46.496L111.943 47.072V78.944L114.775 79.52V80H101.815V79.52L104.935 78.944V51.2H104.215L94.471 80H90.199L77.287 51.92H76.519V62.144C76.519 63.392 76.599 64.752 76.759 66.224C76.951 67.664 77.223 69.12 77.575 70.592C77.959 72.032 78.471 73.376 79.111 74.624C79.751 75.872 80.535 76.928 81.463 77.792C82.391 78.656 83.479 79.232 84.727 79.52V80H72.151ZM130.77 46.016V46.496L127.986 47.072V78.944L130.77 79.52V80H118.146V79.52L120.93 78.944V47.072L118.146 46.496V46.016H130.77ZM134.776 80V79.52L138.136 78.944V50.528C138.136 49.76 137.832 49.024 137.224 48.32C136.616 47.584 135.8 46.976 134.776 46.496V46.016H143.944L164.104 71.984H164.824V60.32C164.824 59.072 164.712 57.872 164.488 56.72C164.264 55.536 163.912 54.416 163.432 53.36C162.984 52.304 162.408 51.344 161.704 50.48C161.032 49.584 160.216 48.8 159.256 48.128C158.328 47.456 157.272 46.912 156.088 46.496V46.016H169.288V46.496L165.544 47.072V80H161.752L139.48 51.488H138.856V62.576C138.856 64.144 138.968 65.632 139.192 67.04C139.416 68.448 139.768 69.776 140.248 71.024C140.76 72.24 141.4 73.376 142.168 74.432C142.936 75.488 143.864 76.448 144.952 77.312C146.072 78.144 147.352 78.88 148.792 79.52V80H134.776ZM189.125 45.296C191.429 45.296 193.557 45.664 195.509 46.4C197.461 47.136 199.157 48.24 200.597 49.712C202.037 51.152 203.157 52.976 203.957 55.184C204.757 57.392 205.157 59.984 205.157 62.96C205.157 65.872 204.773 68.448 204.005 70.688C203.237 72.896 202.133 74.736 200.693 76.208C199.253 77.68 197.557 78.8 195.605 79.568C193.653 80.336 191.493 80.72 189.125 80.72C186.725 80.72 184.533 80.336 182.549 79.568C180.565 78.8 178.853 77.68 177.413 76.208C175.973 74.704 174.853 72.848 174.053 70.64C173.285 68.4 172.901 65.84 172.901 62.96C172.901 60.24 173.285 57.792 174.053 55.616C174.821 53.44 175.909 51.584 177.317 50.048C178.757 48.512 180.469 47.344 182.453 46.544C184.437 45.712 186.661 45.296 189.125 45.296ZM189.125 45.872C187.621 45.872 186.309 46.224 185.189 46.928C184.069 47.6 183.125 48.64 182.357 50.048C181.621 51.456 181.061 53.216 180.677 55.328C180.293 57.44 180.101 59.936 180.101 62.816C180.101 65.696 180.293 68.224 180.677 70.4C181.061 72.576 181.621 74.384 182.357 75.824C183.125 77.232 184.069 78.304 185.189 79.04C186.309 79.744 187.621 80.096 189.125 80.096C190.597 80.096 191.877 79.744 192.965 79.04C194.085 78.336 195.013 77.28 195.749 75.872C196.485 74.432 197.029 72.64 197.381 70.496C197.765 68.32 197.957 65.76 197.957 62.816C197.957 59.904 197.765 57.392 197.381 55.28C197.029 53.136 196.485 51.376 195.749 50C195.013 48.624 194.085 47.6 192.965 46.928C191.877 46.224 190.597 45.872 189.125 45.872Z" fill="white"/>
</svg>
