<svg width="23" height="22" viewBox="0 0 23 22" fill="none" xmlns="http://www.w3.org/2000/svg">
<path d="M11.86 12.6413C5.70697 12.6413 0.719971 15.4617 0.719971 18.9361C0.719971 19.3379 0.790876 19.7318 0.91693 20.11C4.25735 20.7008 7.96018 21.0396 11.86 21.0396C15.7598 21.0396 19.4626 20.7087 22.803 20.11C22.9291 19.7318 23 19.3379 23 18.9361C23 15.4617 18.013 12.6413 11.86 12.6413Z" fill="#F7FF00"/>
<path d="M11.86 11.8534C15.045 11.8534 17.627 9.27148 17.627 6.08648C17.627 2.90147 15.045 0.319519 11.86 0.319519C8.67503 0.319519 6.09308 2.90147 6.09308 6.08648C6.09308 9.27148 8.67503 11.8534 11.86 11.8534Z" fill="#F7FF00"/>
</svg>
